<svg xmlns="http://www.w3.org/2000/svg" xmlns:xlink="http://www.w3.org/1999/xlink" width="400" zoomAndPan="magnify" viewBox="0 0 300 299.999988" height="400" preserveAspectRatio="xMidYMid meet" version="1.0"><rect x="-30" width="360" fill="#ffffff" y="-29.999999" height="359.999986" fill-opacity="1"/><rect x="-30" width="360" fill="#ffffff" y="-29.999999" height="359.999986" fill-opacity="1"/><path fill="#fdb400" d="M 177.375 292.042969 C 173.609375 292.714844 162.097656 293.5 151.808594 293.761719 C 136.515625 294.148438 130.992188 293.785156 121.539062 291.753906 C 98.953125 286.917969 82.253906 279.328125 64.109375 265.671875 C 10.394531 225.21875 -9.160156 153.328125 16.59375 90.929688 C 31.832031 54.003906 63.558594 24.40625 102.546875 10.738281 C 136.128906 -1.027344 177.484375 0.71875 209.601562 15.261719 C 220.476562 20.195312 240.453125 33.59375 249.769531 42.214844 C 267.417969 58.542969 284.105469 86.644531 290.179688 110.246094 C 307.402344 177.230469 277.980469 243.925781 216.035156 278.332031 C 206.96875 283.367188 187.800781 290.160156 177.375 292.042969 Z M 145.433594 194.253906 C 147.429688 196.570312 149.761719 198.300781 150.636719 198.101562 C 152.007812 197.777344 163.84375 182.8125 204.710938 129.761719 C 205.371094 128.914062 205.984375 128.105469 206.582031 127.332031 C 216.371094 114.609375 218.179688 112.265625 219.539062 112.5 C 219.9375 112.5625 220.289062 112.851562 220.785156 113.148438 C 222.808594 114.40625 228.992188 122.222656 257.914062 160.03125 C 265.136719 169.453125 271.507812 177.167969 272.082031 177.167969 C 273.714844 177.167969 274.488281 174.25 276.035156 162.175781 C 278.691406 141.464844 273.601562 112.539062 263.925781 93.246094 C 246.675781 58.914062 216.460938 34.425781 179.519531 24.867188 C 164.902344 21.082031 133.75 21.105469 119.71875 24.894531 C 73.636719 37.367188 39.953125 71.289062 27.40625 117.859375 C 25.121094 126.335938 24.6875 131.332031 24.660156 149.128906 C 24.648438 170 25.410156 177.167969 27.667969 177.167969 C 28.289062 177.167969 39.925781 162.625 53.519531 144.839844 C 67.101562 127.058594 78.910156 112.476562 79.734375 112.4375 C 81.617188 112.351562 86.957031 118.84375 117.511719 158.5 C 130.894531 175.84375 143.453125 191.933594 145.433594 194.253906 Z M 858.589844 221.382812 C 842.949219 223.351562 836.390625 223.0625 825.886719 219.984375 C 772.410156 204.285156 755.199219 135.867188 794.683594 96.015625 C 833.308594 57.019531 902.152344 75.089844 916.304688 127.941406 C 922.554688 151.257812 917.703125 175.199219 902.835938 194.488281 C 892.910156 207.363281 872.769531 219.601562 858.589844 221.382812 Z M 126.863281 273.796875 C 139.660156 276.351562 170.414062 275.429688 181.117188 272.1875 C 214.613281 262.019531 241.949219 241.285156 258.226562 213.667969 L 262.054688 207.1875 L 244.484375 184.382812 C 224.441406 158.398438 221.074219 154.523438 218.980469 155.007812 C 218.15625 155.195312 213.367188 160.792969 208.339844 167.421875 C 205.671875 170.949219 203.140625 174.289062 200.71875 177.492188 C 156.882812 235.363281 152.644531 240.972656 150.199219 240.273438 C 149.800781 240.160156 149.449219 239.875 148.976562 239.636719 C 146.792969 238.46875 138.664062 228.273438 100.125 178.414062 C 90.335938 165.726562 81.59375 155.183594 80.707031 154.984375 C 79.234375 154.636719 46.386719 196.359375 41.671875 204.570312 C 39.800781 207.835938 39.789062 208.457031 41.621094 212.296875 C 45.652344 220.734375 59.417969 237.296875 69.308594 245.609375 C 87.253906 260.6875 105.203125 269.472656 126.863281 273.796875 Z M 632.957031 216.957031 C 631.671875 216.523438 627.992188 216.460938 621.644531 216.757812 C 611.253906 217.269531 609.046875 217.03125 607.265625 215.238281 C 605.269531 213.257812 605.144531 213.28125 605.144531 215.75 C 605.144531 217.304688 606.292969 218.828125 607.949219 219.5 C 608.609375 219.761719 609.746094 219.984375 611.15625 220.148438 C 609.671875 220.011719 608.535156 219.824219 607.949219 219.574219 L 605.144531 218.367188 L 605.144531 76.222656 L 620.519531 76.222656 C 634.851562 76.222656 636.058594 76.410156 638.515625 79.027344 C 640.925781 81.597656 654.34375 102.394531 666.476562 122.332031 C 669.183594 126.78125 672.214844 131.53125 673.214844 132.875 C 675.007812 135.292969 675.035156 135.292969 677.351562 132.875 C 678.636719 131.53125 685.871094 120.339844 693.441406 108.003906 C 701.011719 95.664062 708.644531 83.464844 710.414062 80.898438 L 713.621094 76.222656 L 728.972656 76.222656 C 739.25 76.222656 744.824219 76.722656 745.820312 77.71875 C 746.945312 78.839844 747.316406 96.339844 747.316406 148.777344 L 747.316406 217.34375 C 746.78125 216.523438 742.804688 216.273438 735.707031 216.695312 C 734.171875 216.785156 732.777344 216.894531 731.503906 216.996094 C 727.125 217.355469 724.222656 217.59375 722.300781 216.347656 C 718.546875 213.890625 718.507812 205.753906 718.382812 181.738281 C 718.371094 178.175781 718.347656 174.261719 718.308594 169.964844 L 717.960938 125.449219 L 717.984375 172.132812 L 718.011719 214.367188 C 717.550781 208.132812 717.386719 195.113281 717.386719 171.484375 C 717.386719 140.914062 716.949219 124.828125 716.128906 124.828125 C 714.617188 124.828125 711.738281 128.988281 698.40625 150.375 C 683.964844 173.527344 677.703125 183.109375 676.519531 183.847656 C 675.957031 184.195312 674.820312 184.070312 674.011719 183.570312 C 673.199219 183.0625 664.53125 170.113281 654.742188 154.773438 C 644.953125 139.433594 636.246094 126.660156 635.386719 126.371094 C 634.164062 125.972656 633.828125 135.65625 633.828125 172.007812 C 633.828125 199.261719 633.605469 212.257812 632.957031 216.957031 Z M 387.28125 216.871094 C 386.09375 216.445312 382.867188 216.410156 377.191406 216.734375 C 369.996094 217.144531 365.179688 216.859375 363.410156 215.910156 L 360.703125 214.464844 L 360.703125 148.441406 C 360.703125 98.894531 361.078125 81.820312 362.214844 80 C 363.085938 78.605469 363.234375 77.382812 362.847656 76.773438 L 374.273438 76.5 C 386.183594 76.199219 388.851562 76.472656 390.796875 78.242188 C 392.082031 79.402344 397.257812 86.84375 402.308594 94.792969 C 427.613281 134.597656 430.707031 138.910156 432.578125 137.039062 C 433.5625 136.054688 443.175781 122.121094 453.964844 106.058594 L 473.570312 76.847656 L 488.074219 76.5 C 502.242188 76.148438 502.578125 76.210938 503.328125 78.992188 C 503.75 80.550781 504.101562 112.5 504.113281 149.988281 C 504.113281 185.765625 503.949219 204.882812 503.464844 213.417969 C 502.953125 213.332031 502.078125 213.917969 500.832031 215.175781 C 499.523438 216.484375 496.332031 217.046875 490.230469 217.046875 C 489.085938 217.046875 488.039062 217.070312 487.078125 217.09375 C 483.898438 217.167969 481.675781 217.230469 480.128906 216.234375 C 476.601562 213.96875 476.625 206.203125 476.675781 180.691406 C 476.675781 177.328125 476.6875 173.652344 476.6875 169.640625 C 476.6875 144.988281 476.265625 124.828125 475.753906 124.828125 C 475.429688 124.828125 475.253906 133.398438 475.253906 146.296875 C 475.054688 133.910156 474.71875 125.773438 474.320312 125.523438 C 473.707031 125.148438 464.503906 137.898438 453.878906 153.851562 C 434.210938 183.386719 431.253906 187.171875 429.394531 185.15625 C 428.472656 184.132812 405.363281 149.089844 394.761719 132.613281 C 392.457031 129.011719 390.011719 126.074219 389.351562 126.074219 C 388.589844 126.074219 388.140625 143.21875 388.140625 172.105469 C 388.140625 199.113281 387.917969 212.097656 387.28125 216.871094 Z M 836.140625 195.859375 C 856.167969 200.070312 877.957031 188.433594 887.445312 168.441406 C 890.890625 161.191406 891.300781 159.109375 891.324219 148.503906 C 891.363281 137.761719 891 135.917969 887.460938 128.566406 C 882.484375 118.210938 874.789062 110.53125 864.550781 105.683594 C 857.355469 102.28125 855.183594 101.847656 845.21875 101.859375 C 835.789062 101.871094 832.871094 102.394531 826.984375 105.113281 C 803.964844 115.730469 793.960938 142.222656 803.425781 167.507812 C 808.316406 180.554688 822.707031 193.03125 836.140625 195.859375 Z M 568.089844 216.296875 C 567.367188 216.160156 565.996094 216.285156 563.789062 216.671875 C 556.992188 217.84375 553.660156 217.828125 546.214844 216.609375 C 543 216.085938 540.902344 216.296875 540.292969 216.90625 L 540.292969 148.789062 C 540.292969 96.339844 540.667969 78.839844 541.789062 77.71875 C 542.761719 76.746094 547.800781 76.222656 556.132812 76.222656 L 568.976562 76.222656 L 568.976562 147.183594 C 568.976562 190.066406 568.753906 209.628906 568.089844 216.296875 Z M 133.199219 117.921875 C 125.117188 128.578125 118.308594 137.289062 118.085938 137.289062 C 117.625 137.289062 110.875 128.964844 105.875 122.222656 C 104.042969 119.753906 102.546875 117.136719 102.546875 116.414062 C 102.546875 115.691406 108.582031 107.292969 115.953125 97.757812 C 123.324219 88.238281 133.011719 75.589844 137.464844 69.667969 C 141.917969 63.75 146.21875 58.640625 147.007812 58.304688 C 150.574219 56.808594 154.277344 60 164.726562 73.546875 C 170.875 81.535156 180.730469 94.21875 186.628906 101.757812 C 192.515625 109.285156 197.304688 116.300781 197.277344 117.335938 C 197.203125 119.566406 183.511719 136.492188 181.8125 136.441406 C 181.175781 136.414062 174.15625 128.054688 166.222656 117.859375 C 158.292969 107.652344 150.921875 99.140625 149.847656 98.929688 C 148.578125 98.695312 142.753906 105.324219 133.199219 117.921875 Z M 477.933594 219.324219 L 475.441406 218.351562 L 475.441406 171.746094 C 475.988281 212.96875 476.113281 218.042969 477.933594 219.324219 Z M 607.726562 78.71875 C 608.363281 78.71875 608.886719 78.15625 608.886719 77.472656 C 608.886719 76.785156 608.050781 76.222656 607.015625 76.222656 C 605.765625 76.222656 605.195312 77.371094 605.292969 79.652344 C 605.378906 81.757812 605.65625 82.242188 606.003906 80.898438 C 606.316406 79.703125 607.089844 78.71875 607.726562 78.71875 Z M 568.976562 77.472656 C 568.976562 76.785156 568.140625 76.222656 567.105469 76.222656 C 566.070312 76.222656 565.234375 76.785156 565.234375 77.472656 C 565.234375 78.15625 566.070312 78.71875 567.105469 78.71875 C 568.140625 78.71875 568.976562 78.15625 568.976562 77.472656 Z M 360.753906 76.835938 C 360.453125 77.359375 360.203125 83.066406 360.003906 91.914062 L 360.082031 76.847656 Z M 359.742188 203.847656 C 359.878906 211.039062 360.066406 215.960938 360.304688 217.394531 C 360.191406 217.144531 360.105469 216.894531 360.042969 216.644531 C 359.917969 216.097656 359.804688 211.414062 359.742188 203.847656 Z M 500.382812 219.675781 C 501.480469 219.375 502.390625 218.777344 503.027344 218.015625 C 502.902344 218.640625 502.777344 218.976562 502.640625 219.0625 C 502.140625 219.363281 501.082031 219.625 499.660156 219.847656 C 499.921875 219.785156 500.171875 219.738281 500.382812 219.675781 Z M 360.765625 218.230469 C 361.363281 218.875 362.363281 219.5625 363.199219 219.875 C 363.757812 220.085938 364.90625 220.246094 366.390625 220.359375 C 364.769531 220.296875 363.511719 220.183594 362.886719 220 C 362.125 219.773438 361.328125 219.078125 360.765625 218.230469 Z M 540.292969 217.792969 C 540.652344 218.292969 541.566406 218.875 543.097656 219.5 C 543.757812 219.761719 544.894531 219.984375 546.304688 220.148438 C 544.820312 220.011719 543.683594 219.824219 543.097656 219.574219 L 540.292969 218.367188 Z M 565.148438 219.6875 C 566.132812 219.414062 567.105469 218.914062 567.78125 218.378906 C 567.679688 218.777344 567.578125 219.015625 567.46875 219.078125 C 567.070312 219.324219 566.21875 219.539062 565.0625 219.710938 C 565.085938 219.699219 565.109375 219.699219 565.148438 219.6875 Z M 744.113281 219.5625 C 746.007812 218.851562 747.054688 218.253906 747.316406 217.769531 L 747.316406 218.351562 L 743.886719 219.6875 C 743.066406 220 741.46875 220.222656 739.460938 220.359375 C 741.507812 220.183594 743.191406 219.921875 744.113281 219.5625 Z M 630 219.6875 C 631.023438 219.398438 632.007812 218.925781 632.667969 218.429688 C 632.554688 218.789062 632.445312 219 632.320312 219.078125 C 631.921875 219.324219 631.070312 219.539062 629.910156 219.710938 C 629.9375 219.699219 629.960938 219.699219 630 219.6875 Z M 386.632812 219.078125 C 386.359375 219.25 385.695312 219.398438 384.761719 219.550781 C 385.621094 219.261719 386.421875 218.839844 386.980469 218.402344 C 386.882812 218.777344 386.757812 219 386.632812 219.078125 Z M 721.789062 219.824219 C 720.40625 219.625 719.371094 219.363281 718.894531 219.078125 C 718.882812 219.0625 718.859375 219.050781 718.847656 219.039062 L 721.128906 219.675781 C 721.328125 219.722656 721.550781 219.773438 721.789062 219.824219 Z M 485.804688 220.484375 C 483.671875 220.421875 481.777344 220.285156 480.40625 220.0625 C 481.8125 220.273438 483.710938 220.410156 485.804688 220.484375 Z M 485.804688 220.484375 " fill-opacity="1" fill-rule="nonzero"/><path fill="#fefefe" d="M -98.246094 139.15625 L -98.246094 -24.71875 L 993.003906 -24.71875 L 993.003906 303.03125 L -98.246094 303.03125 Z M 177.375 292.042969 C 187.800781 290.160156 206.96875 283.367188 216.035156 278.332031 C 277.980469 243.925781 307.402344 177.230469 290.179688 110.246094 C 284.105469 86.644531 267.417969 58.542969 249.769531 42.214844 C 240.453125 33.59375 220.476562 20.195312 209.601562 15.261719 C 177.484375 0.71875 136.128906 -1.027344 102.546875 10.738281 C 63.558594 24.40625 31.832031 54.003906 16.59375 90.929688 C -9.160156 153.328125 10.394531 225.21875 64.109375 265.671875 C 82.253906 279.328125 98.953125 286.917969 121.539062 291.753906 C 130.992188 293.785156 136.515625 294.148438 151.808594 293.761719 C 162.097656 293.5 173.609375 292.714844 177.375 292.042969 Z M 858.589844 221.382812 C 872.769531 219.601562 892.910156 207.363281 902.835938 194.488281 C 917.703125 175.199219 922.554688 151.257812 916.304688 127.941406 C 902.152344 75.089844 833.308594 57.019531 794.683594 96.015625 C 755.199219 135.867188 772.410156 204.285156 825.886719 219.984375 C 836.390625 223.0625 842.949219 223.351562 858.589844 221.382812 Z M 386.632812 219.078125 C 387.765625 218.378906 388.140625 206.839844 388.140625 172.105469 C 388.140625 143.21875 388.589844 126.074219 389.351562 126.074219 C 390.011719 126.074219 392.457031 129.011719 394.761719 132.613281 C 405.363281 149.089844 428.472656 184.132812 429.394531 185.15625 C 431.253906 187.171875 434.210938 183.386719 453.878906 153.851562 C 464.503906 137.898438 473.707031 125.148438 474.320312 125.523438 C 474.953125 125.910156 475.441406 146.449219 475.441406 172.28125 L 475.441406 218.351562 L 478.871094 219.6875 C 482.488281 221.082031 500.109375 220.621094 502.640625 219.0625 C 503.761719 218.367188 504.125 201.34375 504.113281 149.988281 C 504.101562 112.5 503.75 80.550781 503.328125 78.992188 C 502.578125 76.210938 502.242188 76.148438 488.074219 76.5 L 473.570312 76.847656 L 453.964844 106.058594 C 443.175781 122.121094 433.5625 136.054688 432.578125 137.039062 C 430.707031 138.910156 427.613281 134.597656 402.308594 94.792969 C 397.257812 86.84375 392.082031 79.402344 390.796875 78.242188 C 388.851562 76.472656 386.183594 76.199219 374.273438 76.5 L 360.082031 76.847656 L 359.730469 145.386719 C 359.542969 183.085938 359.679688 215.152344 360.042969 216.644531 C 360.40625 218.128906 361.6875 219.636719 362.886719 220 C 366.015625 220.921875 384.835938 220.183594 386.632812 219.078125 Z M 567.46875 219.078125 C 568.613281 218.367188 568.976562 201.441406 568.976562 147.183594 L 568.976562 76.222656 L 556.132812 76.222656 C 547.800781 76.222656 542.761719 76.746094 541.789062 77.71875 C 540.667969 78.839844 540.292969 96.339844 540.292969 148.789062 L 540.292969 218.367188 L 543.097656 219.574219 C 546.230469 220.921875 565.109375 220.535156 567.46875 219.078125 Z M 632.320312 219.078125 C 633.453125 218.378906 633.828125 206.8125 633.828125 172.007812 C 633.828125 135.65625 634.164062 125.972656 635.386719 126.371094 C 636.246094 126.660156 644.953125 139.433594 654.742188 154.773438 C 664.53125 170.113281 673.199219 183.0625 674.011719 183.570312 C 674.820312 184.070312 675.957031 184.195312 676.519531 183.847656 C 677.703125 183.109375 683.964844 173.527344 698.40625 150.375 C 711.738281 128.988281 714.617188 124.828125 716.128906 124.828125 C 716.949219 124.828125 717.386719 140.914062 717.386719 171.484375 C 717.386719 206.703125 717.761719 218.378906 718.894531 219.078125 C 721.441406 220.644531 740.234375 221.09375 743.886719 219.6875 L 747.316406 218.351562 L 747.316406 148.777344 C 747.316406 96.339844 746.945312 78.839844 745.820312 77.71875 C 744.824219 76.722656 739.25 76.222656 728.972656 76.222656 L 713.621094 76.222656 L 710.414062 80.898438 C 708.644531 83.464844 701.011719 95.664062 693.441406 108.003906 C 685.871094 120.339844 678.636719 131.53125 677.351562 132.875 C 675.035156 135.292969 675.007812 135.292969 673.214844 132.875 C 672.214844 131.53125 669.183594 126.78125 666.476562 122.332031 C 654.34375 102.394531 640.925781 81.597656 638.515625 79.027344 C 636.058594 76.410156 634.851562 76.222656 620.519531 76.222656 L 605.144531 76.222656 L 605.144531 218.367188 L 607.949219 219.574219 C 611.082031 220.921875 629.960938 220.535156 632.320312 219.078125 Z M 126.863281 273.796875 C 105.203125 269.472656 87.253906 260.6875 69.308594 245.609375 C 59.417969 237.296875 45.652344 220.734375 41.621094 212.296875 C 39.789062 208.457031 39.800781 207.835938 41.671875 204.570312 C 46.386719 196.359375 79.234375 154.636719 80.707031 154.984375 C 81.59375 155.183594 90.335938 165.726562 100.125 178.414062 C 138.664062 228.273438 146.792969 238.46875 148.976562 239.636719 C 152.46875 241.496094 149.511719 245.085938 208.339844 167.421875 C 213.367188 160.792969 218.15625 155.195312 218.980469 155.007812 C 221.074219 154.523438 224.441406 158.398438 244.484375 184.382812 L 262.054688 207.1875 L 258.226562 213.667969 C 241.949219 241.285156 214.613281 262.019531 181.117188 272.1875 C 170.414062 275.429688 139.660156 276.351562 126.863281 273.796875 Z M 145.433594 194.253906 C 143.453125 191.933594 130.894531 175.84375 117.511719 158.5 C 86.957031 118.84375 81.617188 112.351562 79.734375 112.4375 C 78.910156 112.476562 67.101562 127.058594 53.519531 144.839844 C 39.925781 162.625 28.289062 177.167969 27.667969 177.167969 C 25.410156 177.167969 24.648438 170 24.660156 149.128906 C 24.6875 131.332031 25.121094 126.335938 27.40625 117.859375 C 39.953125 71.289062 73.636719 37.367188 119.71875 24.894531 C 133.75 21.105469 164.902344 21.082031 179.519531 24.867188 C 216.460938 34.425781 246.675781 58.914062 263.925781 93.246094 C 273.601562 112.539062 278.691406 141.464844 276.035156 162.175781 C 274.488281 174.25 273.714844 177.167969 272.082031 177.167969 C 271.507812 177.167969 265.136719 169.453125 257.914062 160.03125 C 228.992188 122.222656 222.808594 114.40625 220.785156 113.148438 C 218.453125 111.703125 219.242188 110.894531 204.710938 129.761719 C 163.84375 182.8125 152.007812 197.777344 150.636719 198.101562 C 149.761719 198.300781 147.429688 196.570312 145.433594 194.253906 Z M 133.199219 117.921875 C 142.753906 105.324219 148.578125 98.695312 149.847656 98.929688 C 150.921875 99.140625 158.292969 107.652344 166.222656 117.859375 C 174.15625 128.054688 181.175781 136.414062 181.8125 136.441406 C 183.511719 136.492188 197.203125 119.566406 197.277344 117.335938 C 197.304688 116.300781 192.515625 109.285156 186.628906 101.757812 C 180.730469 94.21875 170.875 81.535156 164.726562 73.546875 C 154.277344 60 150.574219 56.808594 147.007812 58.304688 C 146.21875 58.640625 141.917969 63.75 137.464844 69.667969 C 133.011719 75.589844 123.324219 88.238281 115.953125 97.757812 C 108.582031 107.292969 102.546875 115.691406 102.546875 116.414062 C 102.546875 117.136719 104.042969 119.753906 105.875 122.222656 C 110.875 128.964844 117.625 137.289062 118.085938 137.289062 C 118.308594 137.289062 125.117188 128.578125 133.199219 117.921875 Z M 836.140625 195.859375 C 822.707031 193.03125 808.316406 180.554688 803.425781 167.507812 C 793.960938 142.222656 803.964844 115.730469 826.984375 105.113281 C 832.871094 102.394531 835.789062 101.871094 845.21875 101.859375 C 855.183594 101.847656 857.355469 102.28125 864.550781 105.683594 C 874.789062 110.53125 882.484375 118.210938 887.460938 128.566406 C 891 135.917969 891.363281 137.761719 891.324219 148.503906 C 891.300781 159.109375 890.890625 161.191406 887.445312 168.441406 C 877.957031 188.433594 856.167969 200.070312 836.140625 195.859375 Z M 836.140625 195.859375 " fill-opacity="1" fill-rule="nonzero"/></svg>